<svg xmlns="http://www.w3.org/2000/svg" version="1.1" xmlns:xlink="http://www.w3.org/1999/xlink" xmlns:svgjs="http://svgjs.com/svgjs" width="910" height="650"><svg xmlns="http://www.w3.org/2000/svg" viewBox="0 0 910 650"><defs><style>.cls-1{fill:#000035;}.cls-2{fill:#fdfdfd;}</style></defs><g id="SvgjsG1002"><rect class="cls-1" x="-14" y="-89.5" width="951" height="834"></rect></g><g id="SvgjsG1001"><g id="SvgjsG1000"><rect class="cls-2" x="153.08" y="385.12" width="270" height="57" rx="28.5" ry="28.5"></rect><rect class="cls-2" x="153.08" y="280.62" width="210" height="57" rx="28.5" ry="28.5"></rect><rect class="cls-2" x="385.58" y="280.62" width="270" height="57" rx="28.5" ry="28.5" transform="translate(829.7 -211.46) rotate(90)"></rect><rect class="cls-2" x="520.12" y="258.66" width="210" height="57" rx="28.5" ry="28.5" transform="translate(912.27 -337.96) rotate(90)"></rect><path class="cls-2" d="M393.23,176.12H197.59c-2.45,0-4.8,.95-6.53,2.64l-35.25,34.36c-3.76,3.66-3.63,9.71,.39,13.09,5.12,4.31,11.79,6.92,19.09,6.92h218.55c16.42,0,29.69-13.2,29.23-29.3-.44-15.52-13.91-27.7-29.84-27.7Z"></path><path class="cls-2" d="M758.15,414.27V218.63c0-2.45-.95-4.8-2.64-6.53l-34.36-35.25c-3.66-3.76-9.71-3.63-13.09,.39-4.31,5.12-6.92,11.79-6.92,19.09v218.55c0,16.42,13.2,29.68,29.3,29.23,15.52-.44,27.7-13.91,27.7-29.84Z"></path></g></g></svg><style>@media (prefers-color-scheme: light) { :root { filter: none; } }
</style></svg>