<?xml version="1.0" encoding="UTF-8"?>
<svg width="87px" height="27px" viewBox="0 0 87 27" version="1.1" xmlns="http://www.w3.org/2000/svg" xmlns:xlink="http://www.w3.org/1999/xlink">
    <title>Group 12</title>
    <g id="Webinar-/-TYP-R2-" stroke="none" stroke-width="1" fill="none" fill-rule="evenodd">
        <g id="EMN_WebinarLP1_th_3a" transform="translate(-786.000000, -3146.000000)" fill="#F69543">
            <g id="SPEAKERS" transform="translate(0.000000, 2536.000000)">
                <g id="SPEAKER-2" transform="translate(425.000000, 603.000000)">
                    <g id="Group-12" transform="translate(361.000000, 7.000000)">
                        <polygon id="Fill-1" points="0 1 0 20 13 20 13 16.9442686 3.40438822 16.9442686 3.40438822 11.9613045 12.3708467 11.9613045 12.3708467 8.8129957 3.44328382 8.8129957 3.44328382 4.03005299 12.8164401 4.03005299 12.8164401 1"></polygon>
                        <polygon id="Fill-2" points="26.1341396 15.4162399 19.6662497 1 16 1 16 20 19.2673061 20 19.2673061 6.76636079 24.5474006 20 27.5610231 20 32.734084 6.76636079 32.734084 20 36 20 36 1 32.4664999 1"></polygon>
                        <path d="M49.7421162,6 C47.170955,6 45.0293501,7.57326229 43.3179874,10.7197869 L43.8573342,6 L40.7639811,6 L38,20 L41.4879135,20 L42.8177535,13.2932914 C44.4762794,10.3332526 46.1348052,8.85357229 47.7940173,8.85357229 C49.0490623,8.85357229 49.566451,9.4042141 49.3475558,10.506854 L47.4776828,20 L50.9662826,20 L52.8361556,10.5468636 C53.4324563,7.51562122 52.4011099,6 49.7421162,6" id="Fill-3"></path>
                        <polygon id="Fill-5" points="62 0 58.5467821 0 58 3 61.4532179 3"></polygon>
                        <polygon id="Fill-6" points="57.652694 6 55 20 58.347306 20 61 6"></polygon>
                        <g id="Group-11" transform="translate(59.000000, 0.000000)">
                            <path d="M13.1671707,5.98273684 L9.03956098,5.98273684 C9.42473171,3.99168421 10.6027805,2.99615789 12.5778049,2.99615789 C13.5899024,2.99615789 14.4934146,3.17473684 15.2890244,3.53394737 L15.8394634,0.708842105 C14.9926341,0.351 14.0058049,0.171052632 12.8782927,0.171052632 C8.75546341,0.171052632 6.31946341,2.10805263 5.56756098,5.98273684 L3.02570732,19.0313158 C2.60639024,21.1660526 1.73429268,22.8389474 0.405317073,24.0493158 L2.7504878,26 C4.69068293,24.206 5.9397561,21.8837895 6.49770732,19.0313158 L8.48912195,8.80784211 L12.6167317,8.80784211 L13.1671707,5.98273684 Z" id="Fill-7"></path>
                            <path d="M24.1480195,5.98273684 L22.8251902,12.7495789 C21.1738732,15.7354737 19.523922,17.2291053 17.8726049,17.2291053 C16.6228488,17.2291053 16.107922,16.6735263 16.3257756,15.561 L18.1867512,5.98273684 L14.7147512,5.98273684 L12.8544585,15.5206316 C12.2603122,18.5790526 13.2867512,20.1082632 15.9330927,20.1082632 C18.4920195,20.1082632 20.6234341,18.5202105 22.3266537,15.3461579 L21.3965073,20.1082632 C21.0994341,21.6326842 19.6584585,22.3948947 17.0728976,22.3948947 C15.3874341,22.3948947 13.9198244,22.1704737 12.6707512,21.7216316 L12.1203122,24.5467368 C13.3434341,24.9955789 14.8021659,25.22 16.4965073,25.22 C21.4142634,25.22 24.2047024,23.5156316 24.8685073,20.1082632 L27.6200195,5.98273684 L24.1480195,5.98273684 Z" id="Fill-9"></path>
                        </g>
                    </g>
                </g>
            </g>
        </g>
    </g>
</svg>