<?xml version="1.0" encoding="UTF-8"?><svg xmlns="http://www.w3.org/2000/svg" viewBox="0 0 910 775"><defs><style>.cls-1{fill:#000035;}.cls-2{fill:#fdfdfd;}</style></defs><g id="BG"><rect class="cls-1" x="-21" y="-27" width="951" height="834"/></g><g id="Bild-Wortmarke-groß"><g><g id="Wortmarke"><path class="cls-2" d="M253.67,551.87c0,7.09-4.26,11.15-11.35,11.15h-71.16c2.84,16.62,15.41,27.57,33.86,27.57,11.96,0,21.29-4.66,27.17-11.56,1.82-2.03,4.05-3.24,6.89-3.24,5.07,0,8.51,3.45,8.51,8.31,0,1.82-.61,3.65-1.82,5.27-9.12,10.95-23.52,17.64-40.75,17.64-31.63,0-52.51-20.48-52.51-50.88s20.88-50.88,51.49-50.88c28.58,0,49.67,20.27,49.67,46.22v.41Zm-82.1-4.66h64.87c-3.45-15.41-15.61-25.54-32.44-25.54s-28.99,10.14-32.44,25.54Z"/><path class="cls-2" d="M422.55,548.42v47.84c0,5.88-3.24,9.53-8.72,9.53s-8.92-3.65-8.92-9.53v-45.82c0-18.85-7.91-28.79-22.91-28.79s-25.14,12.16-25.14,32.03v42.57c0,5.88-3.24,9.53-8.92,9.53-5.27,0-8.72-3.65-8.72-9.53v-45.82c0-18.85-7.91-28.79-23.11-28.79s-25.14,12.16-25.14,32.03v42.57c0,5.88-3.24,9.53-8.92,9.53s-8.72-3.65-8.72-9.53v-80.08c0-6.08,3.24-9.73,8.72-9.73s8.92,3.65,8.92,9.73v2.43h.41c6.28-8.72,16.42-13.38,28.79-13.38,14.39,0,24.73,5.88,30.41,16.83h.41c6.69-10.74,18.25-16.83,34.26-16.83,24.94,0,37.3,15,37.3,43.18Z"/><path class="cls-2" d="M540.33,550.45v45.82c0,5.88-3.45,9.53-8.92,9.53s-8.72-3.65-8.72-9.53v-43.99c0-20.07-9.73-30.61-28.38-30.61s-30.61,12.97-30.61,34.26v40.34c0,5.88-3.24,9.53-8.92,9.53s-8.72-3.65-8.72-9.53v-80.28c0-5.88,3.24-9.53,8.72-9.53s8.92,3.65,8.92,9.53v4.87h.41c7.3-9.93,19.06-15.61,34.46-15.61,27.17,0,41.76,15.81,41.76,45.21Z"/><path class="cls-2" d="M561.62,480.46c0-6.49,4.26-11.15,10.95-11.15s11.15,4.66,11.15,11.15-4.26,11.15-11.15,11.15-10.95-4.66-10.95-11.15Zm19.87,35.72v80.08c0,5.88-3.24,9.53-8.92,9.53s-8.72-3.65-8.72-9.53v-80.08c0-6.08,3.24-9.73,8.72-9.73s8.92,3.65,8.92,9.73Z"/><path class="cls-2" d="M625.08,498.14v9.53h15.32c5.47,0,8.92,3.24,8.92,8.31s-3.45,8.11-8.92,8.11h-15.32v72.17c0,5.88-3.24,9.53-8.92,9.53s-8.72-3.65-8.72-9.53v-97.51c0-24.12,13.58-38.52,36.69-38.52,15.21,0,26.76,6.08,32.64,16.83,.81,1.62,1.22,3.04,1.22,4.87,0,5.07-3.45,8.31-8.11,8.31-3.04,0-5.68-1.42-7.1-3.85-3.45-5.68-9.33-9.73-17.64-9.73-12.57,0-20.07,7.91-20.07,21.49Z"/><path class="cls-2" d="M757.49,518.18v80.48c0,30-18.45,48.05-48.66,48.05-18.04,0-32.84-5.07-40.95-15.61-1.01-1.42-1.83-3.45-1.83-5.68,0-4.87,3.45-8.51,8.72-8.51,2.84,0,4.46,1.01,6.49,3.04,6.69,6.69,15.2,10.34,27.17,10.34,19.67,0,31.42-11.76,31.42-30.81v-7.51h-.41c-7.3,9.93-17.06,14.61-32.26,14.61-26.76,0-41.36-15.81-41.36-45.21v-43.18c0-6.08,3.45-9.73,8.92-9.73s8.72,3.65,8.72,9.73v41.36c0,20.07,9.73,30.47,27.98,30.61,16.49,.13,28.49-16.87,28.41-31.26-.1-18.61,0-40.71,0-40.71,0-6.08,3.45-9.73,8.72-9.73,5.68,0,8.92,3.65,8.92,9.73Z"/></g><g id="bildmarke"><rect class="cls-2" x="152.93" y="357.29" width="270" height="57" rx="28.5" ry="28.5"/><rect class="cls-2" x="152.93" y="252.79" width="210" height="57" rx="28.5" ry="28.5"/><rect class="cls-2" x="385.43" y="252.79" width="270" height="57" rx="28.5" ry="28.5" transform="translate(801.72 -239.15) rotate(90)"/><rect class="cls-2" x="519.97" y="230.82" width="210" height="57" rx="28.5" ry="28.5" transform="translate(884.29 -365.65) rotate(90)"/><path class="cls-2" d="M393.08,148.29H197.44c-2.45,0-4.8,.95-6.53,2.64l-35.25,34.36c-3.76,3.66-3.63,9.71,.39,13.09,5.12,4.31,11.79,6.92,19.09,6.92h218.55c16.42,0,29.69-13.2,29.23-29.3-.44-15.52-13.91-27.7-29.84-27.7Z"/><path class="cls-2" d="M758,386.43V190.79c0-2.45-.95-4.8-2.64-6.53l-34.36-35.25c-3.66-3.76-9.71-3.63-13.09,.39-4.31,5.12-6.92,11.79-6.92,19.09v218.55c0,16.42,13.2,29.68,29.3,29.23,15.52-.44,27.7-13.91,27.7-29.84Z"/></g></g></g></svg>