<svg width="68" height="30" viewBox="0 0 68 30" fill="none" xmlns="http://www.w3.org/2000/svg">
<path d="M26.8293 23.4438H3.1662C1.41755 23.4438 0 24.8616 0 26.6104C0 28.3593 1.41755 29.777 3.1662 29.777H26.8293C28.578 29.777 29.9955 28.3593 29.9955 26.6104C29.9955 24.8616 28.578 23.4438 26.8293 23.4438Z" fill="#000035"/>
<path d="M20.1637 11.834H3.1662C1.41755 11.834 0 13.2517 0 15.0006C0 16.7494 1.41755 18.1672 3.1662 18.1672H20.1637C21.9123 18.1672 23.3299 16.7494 23.3299 15.0006C23.3299 13.2517 21.9123 11.834 20.1637 11.834Z" fill="#000035"/>
<path d="M43.9922 26.8336V3.16756C43.9922 1.41871 42.5746 0.000976563 40.826 0.000976563C39.0773 0.000976563 37.6598 1.41871 37.6598 3.16756V26.8336C37.6598 28.5825 39.0773 30.0002 40.826 30.0002C42.5746 30.0002 43.9922 28.5825 43.9922 26.8336Z" fill="#000035"/>
<path d="M55.6055 21.0602V4.06063C55.6055 2.31177 54.1879 0.894043 52.4393 0.894043C50.6906 0.894043 49.2731 2.31177 49.2731 4.06063V21.0602C49.2731 22.8091 50.6906 24.2268 52.4393 24.2268C54.1879 24.2268 55.6055 22.8091 55.6055 21.0602Z" fill="#000035"/>
<path d="M26.6789 0.222656H4.94435C4.67217 0.222656 4.4111 0.328209 4.2189 0.515982L0.302817 4.33255C-0.114899 4.73921 -0.100456 5.41141 0.346144 5.78696C0.914948 6.26584 1.65595 6.55583 2.46694 6.55583H26.7467C28.5708 6.55583 30.0451 5.0892 29.994 3.30036C29.9451 1.57596 28.4486 0.222656 26.6789 0.222656V0.222656Z" fill="#000035"/>
<path d="M67.2191 26.6833V4.94607C67.2191 4.67385 67.1136 4.41275 66.9258 4.22053L63.1097 0.302854C62.7031 -0.114913 62.031 -0.100469 61.6555 0.346187C61.1767 0.915061 60.8867 1.65615 60.8867 2.46724V26.7511C60.8867 28.5755 62.3532 30.0488 64.1418 29.9988C65.866 29.9499 67.2191 28.4532 67.2191 26.6833Z" fill="#000035"/>
</svg>
